<!-- <svg width="1280" height="80" viewBox="0 0 1280 80" fill="none" xmlns="http://www.w3.org/2000/svg">
<path fill-rule="evenodd" clip-rule="evenodd" d="M0 11.5985L30 17.2491C61 22.8996 122 34.2007 183 28.5502C244 22.8996 305 0 366 0C427 0 488 22.8996 549 34.2007C610 45.7993 670 45.7993 731 34.2007C792 22.8996 853 0 914 0C975 0 1036 57.1004 1097 55.316C1158 53.2342 1219 26.7658 1250 13.3829L1280 0V80H1250C1219 80 1158 80 1097 80C1036 80 975 80 914 80C853 80 792 80 731 80C670 80 610 80 549 80C488 80 427 80 366 80C305 80 244 80 183 80C122 80 61 80 30 80H0V11.5985Z" fill="white"/>
</svg> -->
<svg width="1280" height="80" viewBox="0 0 1280 80" fill="none" xmlns="http://www.w3.org/2000/svg">
<path d="M0 0H1280V80L0 0Z" fill="#ffffff"/>
</svg>
