<!-- <svg width="1280" height="80" viewBox="0 0 1280 80" fill="none" xmlns="http://www.w3.org/2000/svg">
<path fill-rule="evenodd" clip-rule="evenodd" d="M0 58.3984H36C71 58.3984 142 58.3984 213 65C284 71.6016 356 84.2969 427 74.6484C498 65 569 32.5 640 29.4531C711 25.8984 782 51.7969 853 51.7969C924 51.7969 996 25.8984 1067 29.4531C1138 32.5 1209 47.2266 1244 63.4766L1280 79.7266V0H1244C1209 0 1138 0 1067 0C996 0 924 0 853 0C782 0 711 0 640 0C569 0 498 0 427 0C356 0 284 0 213 0C142 0 71 0 36 0H0V58.3984Z" fill="#1A3664"/>
</svg> -->
<svg width="1280" height="80" viewBox="0 0 1280 80" fill="none" xmlns="http://www.w3.org/2000/svg">
<path d="M1280 0H0V80L1280 0Z" fill="#1A3664"/>
</svg>

